# xmcd
#
# Track frame offsets:
#	150
#	14967
#	33085
#	48082
#	64082
#	80722
#	97207
#	114672
#	130485
#	146827
#	164192
#	180292
#	197192
#	216645
#	235352
#	253257
#	281637
#
# Disc length: 3768 seconds
#
# Revision: 1
# Processed by: cddbd v1.5.2PL0 Copyright (c) Steve Scherf et al.
# Submitted via: audiograbber 1.83.01
#
DISCID=150eb611
DTITLE=Various Artist - MH1112
DYEAR=1900
DGENRE=Karaoke
TTITLE0=Thomson, Cyndi - What I Really Meant To Say
TTITLE1=Andrews, Jessica - Helplessly, Hopelessly
TTITLE2=McEntire, Reba - I'm A Survivor
TTITLE3=Johnson, Carole Dawn - Complicated
TTITLE4=Yearwood, Trisha - Inside Out
TTITLE5=Hill, Faith - There You'll Be
TTITLE6=Trick Pony - On A Night Like This
TTITLE7=Womack, Lee Ann - Does My Ring Burn Your Finger
TTITLE8=McBride, Martina - When God-Fearin' Women Get The Blues
TTITLE9=Wright, Chely - Never Love You Enough
TTITLE10=Cochran, Tammy - Angels In Waiting
TTITLE11=Evans, Sara - Saints and Angels
TTITLE12=O' Neal, Jamie - Shiver
TTITLE13=McBride, Martina - Blessed
TTITLE14=Dixie Chicks - Heartbreak Town
TTITLE15=Yearwood, Trisha - I Would've Loved You Anyway
TTITLE16=Data - Data Track
EXTD=
EXTT0=
EXTT1=
EXTT2=
EXTT3=
EXTT4=
EXTT5=
EXTT6=
EXTT7=
EXTT8=
EXTT9=
EXTT10=
EXTT11=
EXTT12=
EXTT13=
EXTT14=
EXTT15=
EXTT16=
PLAYORDER=
